<svg xmlns="http://www.w3.org/2000/svg" viewBox="0 0 847.61 793.05"><defs><style>.cls-1{fill:#ffc501;}.cls-2{fill:#f39655;stroke:#31afde;stroke-miterlimit:10;stroke-width:0.18px;}.cls-3{fill:#14baee;}.cls-4{fill:#b7e1f8;}.cls-5{fill:#fff000;}.cls-6{fill:#fff;}.cls-7{fill:#f5aa00;}</style></defs><title>3-de-3-bien</title><g id="Capa_2" data-name="Capa 2"><g id="Capa_2-2" data-name="Capa 2"><path class="cls-1" d="M515.78,322c-6.1-19.83-23.83-34.39-45-38.14V271.7a352.62,352.62,0,0,0-160.73,0v12.22c-19.91,4.51-36.3,18.65-42.13,37.57-8.57,27.84,10.19,50.28,11,51.22,13.53,15.89,31.33,19,41.74,19.25a80.62,80.62,0,0,0,45.68,36.79v16h12.86q-3.31,24.48-6.64,48.94H352.78v7.73h-18V526.7H462V501.45H439.33v-7.73H419.15q-4.08-24.47-8.15-48.94h14.32V424.7h-.53l.44-.21a80.84,80.84,0,0,0,34.6-32l1.54,0c10.08,0,29.13-2.51,43.41-19.27A61.93,61.93,0,0,0,516.57,349,50.94,50.94,0,0,0,515.78,322ZM292.36,361.26c-.13-.17-13.24-16.11-7.56-34.57C288.37,315.1,298,306.14,310,302.23v49.83a80.06,80.06,0,0,0,2.86,21.24A36.85,36.85,0,0,1,292.36,361.26Zm202.86-5.52a40.61,40.61,0,0,1-3.89,6,37.37,37.37,0,0,1-23.75,12.62,80.35,80.35,0,0,0,3.18-22.34V301.94c13.39,3.34,24.27,12.78,28.12,25.28C502.45,338.82,498.6,349.43,495.22,355.74Z"/><polygon class="cls-2" points="386.26 178.76 391.54 195.01 408.63 195.01 394.8 205.05 400.08 221.3 386.26 211.26 372.44 221.3 377.72 205.05 363.9 195.01 380.98 195.01 386.26 178.76"/><polygon class="cls-2" points="435.11 207.74 440.39 223.99 457.47 223.99 443.65 234.03 448.93 250.28 435.11 240.24 421.29 250.28 426.57 234.03 412.74 223.99 429.83 223.99 435.11 207.74"/><polygon class="cls-2" points="341.71 207.74 346.99 223.99 364.07 223.99 350.25 234.03 355.53 250.28 341.71 240.24 327.89 250.28 333.17 234.03 319.35 223.99 336.43 223.99 341.71 207.74"/><path class="cls-3" d="M86.32,626.37a2,2,0,0,1-.14-4c12.32-.88,20.27-6.21,23.63-15.84,5.15-13.76,14.74-19.67,28.51-17.61a2,2,0,0,1-.59,4c-11.82-1.76-19.72,3.15-24.16,15-4.89,14-17.44,17.77-27.1,18.47Z"/><path class="cls-3" d="M139.93,226h-.13c-13.9-.88-22-8.67-24.17-23.16-1.27-10.16-7.92-17-19.78-20.49A2,2,0,0,1,97,178.46c9.3,2.71,20.78,9,22.62,23.79,1.85,12.49,8.54,19,20.46,19.71a2,2,0,0,1-.12,4Z"/><path class="cls-4" d="M40.7,567.39a1,1,0,0,1-.25,0L31,565.46a1.27,1.27,0,1,1,.5-2.49l8.47,1.7,3.34-8a1.28,1.28,0,0,1,1.42-.75l8.48,1.7,3.34-8a1.27,1.27,0,0,1,1.42-.75l8.47,1.7,3.35-8a1.26,1.26,0,0,1,1.42-.75l8.47,1.7,3.34-8a1.27,1.27,0,0,1,1.42-.75l8.48,1.7,3.34-8a1.27,1.27,0,0,1,1.42-.75l8.48,1.7,3.34-8a1.27,1.27,0,0,1,1.42-.76l8.48,1.7,3.34-8a1.29,1.29,0,0,1,1.43-.75l8.47,1.7,3.35-8a1.26,1.26,0,0,1,1.42-.75l8.47,1.7,3.35-8a1.28,1.28,0,0,1,1.42-.76l9.49,1.91a1.27,1.27,0,1,1-.49,2.49l-8.48-1.7-3.35,8a1.27,1.27,0,0,1-1.42.75l-8.48-1.7-3.34,8a1.27,1.27,0,0,1-1.42.75l-8.48-1.7-3.34,8a1.27,1.27,0,0,1-1.42.76l-8.48-1.7-3.34,8a1.28,1.28,0,0,1-1.42.75l-8.48-1.7-3.34,8a1.27,1.27,0,0,1-1.42.75l-8.48-1.7-3.34,8a1.26,1.26,0,0,1-1.42.75l-8.47-1.7-3.35,8a1.26,1.26,0,0,1-1.42.75l-8.47-1.7-3.34,8a1.27,1.27,0,0,1-1.42.75l-8.48-1.7-3.34,8A1.27,1.27,0,0,1,40.7,567.39Z"/><path class="cls-4" d="M157,309.31a1.28,1.28,0,0,1-1.17-.78l-3.35-8-8.47,1.7a1.29,1.29,0,0,1-1.43-.75l-3.34-8-8.48,1.7a1.27,1.27,0,0,1-1.42-.76l-3.34-8-8.48,1.7a1.29,1.29,0,0,1-1.42-.76l-3.34-8-8.48,1.7a1.27,1.27,0,0,1-1.42-.75l-3.34-8L91,274.17a1.27,1.27,0,0,1-1.42-.75l-3.34-8-8.47,1.7a1.27,1.27,0,0,1-1.42-.75l-3.35-8-8.47,1.7a1.27,1.27,0,0,1-1.42-.75l-3.35-8-8.47,1.7a1.28,1.28,0,0,1-1.42-.75l-3.34-8-8.48,1.7a1.27,1.27,0,0,1-1.42-.76l-3.74-8.92a1.27,1.27,0,1,1,2.34-1l3.34,8,8.48-1.7a1.27,1.27,0,0,1,1.42.76l3.34,8,8.47-1.71a1.28,1.28,0,0,1,1.42.76l3.35,8,8.47-1.7a1.26,1.26,0,0,1,1.42.75l3.34,8,8.48-1.7a1.27,1.27,0,0,1,1.42.75l3.34,8,8.48-1.7a1.27,1.27,0,0,1,1.42.75l3.34,8,8.48-1.7a1.28,1.28,0,0,1,1.42.75l3.34,8,8.48-1.7a1.27,1.27,0,0,1,1.42.76l3.34,8,8.48-1.7a1.27,1.27,0,0,1,1.42.76l3.34,8,8.48-1.7a1.27,1.27,0,0,1,1.42.75l3.75,8.93a1.26,1.26,0,0,1-.67,1.66A1.27,1.27,0,0,1,157,309.31Z"/><path class="cls-5" d="M94.7,792.34l-3.93-3.82a10.9,10.9,0,0,1,5.77-3.22,5.65,5.65,0,0,0,3.2-1.73,5.56,5.56,0,0,0,1.64-3.25,11.52,11.52,0,0,1,8.82-9.07,6.07,6.07,0,0,0,4.85-5,11.52,11.52,0,0,1,8.82-9.07,6.08,6.08,0,0,0,4.84-5,11.52,11.52,0,0,1,8.82-9.07,6.1,6.1,0,0,0,4.85-5,11.52,11.52,0,0,1,8.82-9.07,5.65,5.65,0,0,0,3.2-1.73,5.55,5.55,0,0,0,1.64-3.26,11.56,11.56,0,0,1,8.82-9.07,6.07,6.07,0,0,0,4.85-5,11.56,11.56,0,0,1,8.82-9.07,6.07,6.07,0,0,0,4.85-5,10.81,10.81,0,0,1,3.06-5.85l3.93,3.82a5.61,5.61,0,0,0-1.65,3.25,11.52,11.52,0,0,1-8.82,9.08,5.53,5.53,0,0,0-3.2,1.73,5.63,5.63,0,0,0-1.65,3.25,11.52,11.52,0,0,1-8.82,9.08,6.08,6.08,0,0,0-4.84,5,11.52,11.52,0,0,1-8.82,9.07,6.1,6.1,0,0,0-4.85,5,11.52,11.52,0,0,1-8.82,9.07,6.1,6.1,0,0,0-4.85,5,11.53,11.53,0,0,1-8.81,9.07,5.52,5.52,0,0,0-3.21,1.73,5.59,5.59,0,0,0-1.64,3.25,11.49,11.49,0,0,1-8.82,9.07,5.65,5.65,0,0,0-3.2,1.73,5.55,5.55,0,0,0-1.64,3.26,11.56,11.56,0,0,1-8.82,9.07A5.55,5.55,0,0,0,94.7,792.34Z"/><path class="cls-3" d="M236.61,644a2,2,0,0,1-1.34-.52,2,2,0,0,1-.14-2.82l10.9-12a2,2,0,1,1,3,2.69l-10.9,12A2,2,0,0,1,236.61,644Z"/><path class="cls-3" d="M194.28,690.57a2,2,0,0,1-1.34-.52,2,2,0,0,1-.14-2.82l37.09-40.84a2,2,0,1,1,3,2.69l-37.09,40.84A2,2,0,0,1,194.28,690.57Z"/><path class="cls-5" d="M188.58,102.22a5.58,5.58,0,0,0-3.21-1.73,11.52,11.52,0,0,1-8.82-9.08,6.14,6.14,0,0,0-4.85-5,11.49,11.49,0,0,1-8.82-9.07,6.07,6.07,0,0,0-4.85-5,11.56,11.56,0,0,1-8.82-9.07,6.07,6.07,0,0,0-4.85-5,11.53,11.53,0,0,1-8.81-9.07,6.1,6.1,0,0,0-4.85-5,11.49,11.49,0,0,1-8.82-9.07,5.59,5.59,0,0,0-1.64-3.25A5.52,5.52,0,0,0,117,30.2,10.84,10.84,0,0,1,111.27,27a10.85,10.85,0,0,1-3-5.85,6.07,6.07,0,0,0-4.85-5,10.81,10.81,0,0,1-5.76-3.21,10.83,10.83,0,0,1-3.06-5.86,5.56,5.56,0,0,0-1.64-3.25L96.84,0A11,11,0,0,1,99.9,5.85a5.55,5.55,0,0,0,1.64,3.26,5.65,5.65,0,0,0,3.2,1.73,10.81,10.81,0,0,1,5.76,3.21,10.83,10.83,0,0,1,3.06,5.86,5.62,5.62,0,0,0,1.64,3.25,5.53,5.53,0,0,0,3.2,1.73A11.52,11.52,0,0,1,127.22,34a6.07,6.07,0,0,0,4.85,5A11.52,11.52,0,0,1,140.89,48a5.59,5.59,0,0,0,1.64,3.25,5.53,5.53,0,0,0,3.2,1.73,11.52,11.52,0,0,1,8.82,9.07,6.07,6.07,0,0,0,4.85,5,11.56,11.56,0,0,1,8.82,9.07,6.07,6.07,0,0,0,4.85,5,11.56,11.56,0,0,1,8.82,9.07,6.07,6.07,0,0,0,4.85,5,10.84,10.84,0,0,1,5.76,3.22Z"/><path class="cls-3" d="M247.51,166.45a2,2,0,0,1-1.48-.65l-10.9-12a2,2,0,1,1,3-2.69l10.9,12a2,2,0,0,1-1.48,3.34Z"/><path class="cls-3" d="M231.37,148.68a2,2,0,0,1-1.48-.65L192.8,107.19a2,2,0,1,1,3-2.69l37.09,40.84a2,2,0,0,1-1.48,3.34Z"/><path class="cls-5" d="M104.55,706.35a19.31,19.31,0,0,1-5.75-1.14c-3.21-1-4.75-1.33-6-.23l-3.55-4.17c3.73-3.18,8.07-1.82,11.23-.84s4.75,1.33,6,.23,1.23-2.68.76-6-1.1-7.78,2.64-11,8.06-1.83,11.23-.84,4.75,1.33,6,.22,1.23-2.67.76-6-1.1-7.78,2.63-11,8.07-1.82,11.24-.83,4.75,1.33,6.05.22,1.23-2.68.76-6-1.1-7.77,2.63-10.95,8.07-1.82,11.23-.83,4.76,1.32,6.06.22,1.23-2.68.75-6-1.09-7.78,2.64-11,8.07-1.82,11.23-.84,4.76,1.33,6.06.22,1.23-2.68.76-6-1.1-7.77,2.63-10.95,8.07-1.82,11.24-.83,4.75,1.32,6,.22,1.23-2.68.76-6-1.1-7.78,2.64-11,8.06-1.83,11.23-.84,4.75,1.32,6.05.22l3.55,4.18c-3.73,3.17-8.07,1.82-11.23.83s-4.76-1.32-6.06-.22-1.23,2.68-.76,6,1.1,7.78-2.63,11-8.07,1.83-11.24.84-4.75-1.33-6.05-.22-1.23,2.68-.76,6,1.1,7.78-2.63,11-8.07,1.82-11.24.83-4.75-1.32-6-.22-1.23,2.68-.76,6,1.1,7.78-2.64,10.95-8.06,1.83-11.23.84-4.75-1.33-6.05-.22-1.23,2.68-.76,6,1.1,7.77-2.63,11-8.07,1.82-11.24.83-4.75-1.33-6.05-.22-1.23,2.68-.76,6,1.1,7.78-2.63,10.95-8.07,1.82-11.23.83-4.76-1.32-6.06-.22-1.22,2.68-.75,6,1.1,7.78-2.64,11A8.15,8.15,0,0,1,104.55,706.35Z"/><path class="cls-5" d="M211.62,206c-3.74-3.17-3.11-7.67-2.64-10.95s.54-4.91-.76-6-2.84-.78-6.06.22-7.49,2.34-11.23-.84-3.1-7.67-2.64-10.95.55-4.91-.75-6-2.85-.78-6.06.22-7.5,2.34-11.23-.83-3.1-7.67-2.64-11,.54-4.9-.76-6-2.84-.79-6,.22-7.5,2.34-11.23-.84-3.1-7.67-2.64-11,.54-4.9-.76-6-2.84-.78-6,.22-7.5,2.34-11.23-.83-3.1-7.67-2.64-10.95.55-4.91-.75-6-2.84-.78-6.06.22-7.49,2.34-11.23-.83-3.1-7.67-2.63-10.95.54-4.91-.76-6-2.84-.78-6,.22-7.5,2.34-11.24-.83-3.1-7.67-2.63-11,.54-4.9-.76-6l3.55-4.17c3.73,3.17,3.1,7.67,2.63,11s-.54,4.91.76,6,2.84.78,6-.22,7.5-2.34,11.24.83,3.1,7.67,2.63,11-.54,4.91.76,6,2.84.78,6-.22,7.5-2.34,11.24.83,3.09,7.67,2.63,11-.54,4.9.76,6,2.84.78,6.05-.22,7.5-2.34,11.23.84,3.1,7.66,2.64,11-.54,4.9.76,6,2.84.78,6-.22,7.5-2.34,11.23.83,3.1,7.67,2.64,10.95-.54,4.91.76,6,2.84.78,6-.22,7.5-2.34,11.23.83,3.1,7.67,2.64,11-.54,4.9.76,6,2.84.78,6.05-.22,7.5-2.34,11.24.83,3.1,7.67,2.63,10.95-.54,4.91.76,6Z"/><path class="cls-6" d="M5.8,742.7l-.57,0c-.18,0-.37,0-.56-.08a7.18,7.18,0,0,1-1.09-.33,6.43,6.43,0,0,1-1-.54,4.52,4.52,0,0,1-.46-.34A5,5,0,0,1,1.7,741a5.14,5.14,0,0,1-.38-.42,5,5,0,0,1-.34-.46,5.31,5.31,0,0,1-.53-1A5.26,5.26,0,0,1,.12,738a5,5,0,0,1-.09-.56,5.43,5.43,0,0,1,0-1.14,5.62,5.62,0,0,1,.09-.57,5.18,5.18,0,0,1,.33-1.08,5.31,5.31,0,0,1,.53-1,3.9,3.9,0,0,1,.34-.46,5.14,5.14,0,0,1,.38-.42,5.11,5.11,0,0,1,.42-.39l.46-.34a5.64,5.64,0,0,1,1-.53,5.45,5.45,0,0,1,1.09-.33l.56-.09a5.53,5.53,0,0,1,1.15,0,5.43,5.43,0,0,1,.56.09,5.18,5.18,0,0,1,1.08.33,5.4,5.4,0,0,1,1,.53,5.3,5.3,0,0,1,.45.34,5.22,5.22,0,0,1,.43.39,5.14,5.14,0,0,1,.38.42,3.9,3.9,0,0,1,.34.46,5.31,5.31,0,0,1,.53,1,5.89,5.89,0,0,1,.34,1.08c0,.19.06.38.08.57a5.43,5.43,0,0,1,0,1.14c0,.19-.05.38-.08.56a6,6,0,0,1-.34,1.09,5.64,5.64,0,0,1-.53,1,5,5,0,0,1-.34.46,5.14,5.14,0,0,1-.38.42,5.08,5.08,0,0,1-.43.38,3,3,0,0,1-.45.34,6.11,6.11,0,0,1-1,.54,6.74,6.74,0,0,1-1.08.33,5.39,5.39,0,0,1-.56.08A5.49,5.49,0,0,1,5.8,742.7Z"/><path class="cls-6" d="M17.71,726.53a5.8,5.8,0,0,1,.57-8.18h0a5.8,5.8,0,0,1,8.19.56h0a5.81,5.81,0,0,1-.57,8.19h0a5.78,5.78,0,0,1-3.81,1.43h0A5.8,5.8,0,0,1,17.71,726.53ZM34,712.36a5.81,5.81,0,0,1,.57-8.19h0a5.81,5.81,0,0,1,8.19.57h0a5.81,5.81,0,0,1-.57,8.19h0a5.8,5.8,0,0,1-3.81,1.42h0A5.79,5.79,0,0,1,34,712.36Zm16.29-14.17a5.81,5.81,0,0,1,.56-8.2h0a5.82,5.82,0,0,1,8.19.57h0a5.8,5.8,0,0,1-.57,8.19h0a5.75,5.75,0,0,1-3.8,1.43h0A5.8,5.8,0,0,1,50.28,698.19ZM66.56,684a5.81,5.81,0,0,1,.56-8.19h0a5.81,5.81,0,0,1,8.19.57h0a5.81,5.81,0,0,1-.56,8.19h0A5.85,5.85,0,0,1,70.94,686h0A5.78,5.78,0,0,1,66.56,684Zm16.28-14.18a5.8,5.8,0,0,1,.56-8.18h0a5.81,5.81,0,0,1,8.2.56h0A5.82,5.82,0,0,1,91,670.4h0a5.78,5.78,0,0,1-3.81,1.43h0A5.76,5.76,0,0,1,82.84,669.83Zm16.28-14.17a5.81,5.81,0,0,1,.57-8.19h0a5.8,5.8,0,0,1,8.19.57h0a5.81,5.81,0,0,1-.57,8.19h0a5.77,5.77,0,0,1-3.81,1.42h0A5.79,5.79,0,0,1,99.12,655.66Zm16.29-14.17a5.8,5.8,0,0,1,.56-8.19h0a5.81,5.81,0,0,1,8.19.56h0a5.8,5.8,0,0,1-.57,8.19h0a5.77,5.77,0,0,1-3.8,1.43h0A5.79,5.79,0,0,1,115.41,641.49Zm16.28-14.18a5.81,5.81,0,0,1,.56-8.19h0a5.81,5.81,0,0,1,8.19.57h0a5.81,5.81,0,0,1-.56,8.19h0a5.85,5.85,0,0,1-3.81,1.43h0A5.78,5.78,0,0,1,131.69,627.31ZM148,613.14a5.82,5.82,0,0,1,.56-8.19h0a5.81,5.81,0,0,1,8.19.56h0a5.81,5.81,0,0,1-.56,8.19h0a5.78,5.78,0,0,1-3.81,1.43h0A5.79,5.79,0,0,1,148,613.14ZM164.25,599a5.81,5.81,0,0,1,.57-8.19h0a5.8,5.8,0,0,1,8.18.57h0a5.8,5.8,0,0,1-.56,8.19h0a5.77,5.77,0,0,1-3.81,1.42h0A5.79,5.79,0,0,1,164.25,599Zm16.29-14.17a5.8,5.8,0,0,1,.56-8.19h0a5.81,5.81,0,0,1,8.19.56h0a5.8,5.8,0,0,1-.57,8.19h0a5.77,5.77,0,0,1-3.8,1.43h0A5.79,5.79,0,0,1,180.54,584.79Z"/><path class="cls-6" d="M201.19,572.61l-.57,0a5.43,5.43,0,0,1-.56-.09,5.26,5.26,0,0,1-1.09-.33,5.64,5.64,0,0,1-1-.53l-.46-.34a6.55,6.55,0,0,1-.8-.81,5,5,0,0,1-.34-.46,6,6,0,0,1-.54-1,7.06,7.06,0,0,1-.33-1.08,5.58,5.58,0,0,1-.08-.57,5.3,5.3,0,0,1,0-.57,6.36,6.36,0,0,1,.11-1.13,6.85,6.85,0,0,1,.33-1.09,6.43,6.43,0,0,1,.54-1,5,5,0,0,1,.34-.46,5.14,5.14,0,0,1,.38-.42l.42-.39L198,562a7.34,7.34,0,0,1,1-.53,6.85,6.85,0,0,1,1.09-.33,6,6,0,0,1,1.7-.08,5.58,5.58,0,0,1,.57.08,6.74,6.74,0,0,1,1.08.33,7.46,7.46,0,0,1,1,.53,5.3,5.3,0,0,1,.45.34l.43.39a5.14,5.14,0,0,1,.38.42,5,5,0,0,1,.34.46,5.64,5.64,0,0,1,.53,1,6,6,0,0,1,.34,1.09c0,.19.06.37.08.56a5.44,5.44,0,0,1,0,.57,5.3,5.3,0,0,1,0,.57c0,.19-.05.38-.08.57a6.14,6.14,0,0,1-.34,1.08,5.31,5.31,0,0,1-.53,1,5,5,0,0,1-.34.46,5.14,5.14,0,0,1-.38.42,5.22,5.22,0,0,1-.43.39,5.3,5.3,0,0,1-.45.34,5.73,5.73,0,0,1-1,.53,5.18,5.18,0,0,1-1.08.33l-.57.09A5.3,5.3,0,0,1,201.19,572.61Z"/><path class="cls-6" d="M6.24,77.78a5.46,5.46,0,0,1-.57,0,3.43,3.43,0,0,1-.56-.08A6,6,0,0,1,4,77.33a6.38,6.38,0,0,1-1-.53l-.46-.34a3.88,3.88,0,0,1-.42-.39,5.23,5.23,0,0,1-.39-.42,5.48,5.48,0,0,1-.34-.46,6,6,0,0,1-.53-1,6.74,6.74,0,0,1-.33-1.08,5.58,5.58,0,0,1-.08-.57,5.43,5.43,0,0,1,0-1.14,5.58,5.58,0,0,1,.08-.57,7.06,7.06,0,0,1,.33-1.08,6,6,0,0,1,.53-1c.11-.16.22-.31.34-.46a5.23,5.23,0,0,1,.39-.42,3,3,0,0,1,.42-.38A5.07,5.07,0,0,1,3,67.14a6.38,6.38,0,0,1,1-.53,6.85,6.85,0,0,1,1.09-.33,5,5,0,0,1,.56-.09,7.23,7.23,0,0,1,1.14,0,5.62,5.62,0,0,1,.57.09,7.06,7.06,0,0,1,1.08.33,6,6,0,0,1,1,.53,5.07,5.07,0,0,1,.46.35,3.78,3.78,0,0,1,.43.38,5.14,5.14,0,0,1,.38.42c.12.15.23.3.34.46a6,6,0,0,1,.53,1,5.37,5.37,0,0,1,.33,1.08,5.62,5.62,0,0,1,.09.57,5.43,5.43,0,0,1,0,1.14,5.62,5.62,0,0,1-.09.57,5.18,5.18,0,0,1-.33,1.08,6,6,0,0,1-.53,1,5.48,5.48,0,0,1-.34.46,3.88,3.88,0,0,1-.39.42,3.88,3.88,0,0,1-.42.39l-.46.34a6,6,0,0,1-1,.53,6.1,6.1,0,0,1-1.08.33,3.72,3.72,0,0,1-.57.08A5.27,5.27,0,0,1,6.24,77.78Z"/><path class="cls-6" d="M181.53,232.27a5.81,5.81,0,0,1-.56-8.19h0a5.8,5.8,0,0,1,8.19-.56h0a5.81,5.81,0,0,1,.57,8.19h0a5.84,5.84,0,0,1-4.38,2h0A5.78,5.78,0,0,1,181.53,232.27ZM165.26,218.1a5.79,5.79,0,0,1-.57-8.19h0a5.79,5.79,0,0,1,8.18-.57h0a5.8,5.8,0,0,1,.57,8.19h0a5.77,5.77,0,0,1-4.38,2h0A5.77,5.77,0,0,1,165.26,218.1ZM149,203.92a5.81,5.81,0,0,1-.57-8.19h0a5.8,5.8,0,0,1,8.19-.56h0a5.79,5.79,0,0,1,.57,8.18h0a5.8,5.8,0,0,1-4.38,2h0A5.78,5.78,0,0,1,149,203.92Zm-16.28-14.17a5.81,5.81,0,0,1-.57-8.19h0a5.81,5.81,0,0,1,8.19-.57h0a5.81,5.81,0,0,1,.57,8.19h0a5.79,5.79,0,0,1-4.38,2h0A5.8,5.8,0,0,1,132.69,189.75Zm-16.28-14.18a5.8,5.8,0,0,1-.57-8.19h0a5.81,5.81,0,0,1,8.19-.56h0a5.81,5.81,0,0,1,.57,8.19h0a5.84,5.84,0,0,1-4.38,2h0A5.74,5.74,0,0,1,116.41,175.57ZM100.13,161.4a5.79,5.79,0,0,1-.57-8.19h0a5.8,5.8,0,0,1,8.18-.57h0a5.79,5.79,0,0,1,.57,8.19h0a5.77,5.77,0,0,1-4.38,2h0A5.77,5.77,0,0,1,100.13,161.4ZM83.84,147.22a5.81,5.81,0,0,1-.57-8.19h0a5.8,5.8,0,0,1,8.19-.56h0a5.79,5.79,0,0,1,.57,8.18h0a5.8,5.8,0,0,1-4.38,2h0A5.78,5.78,0,0,1,83.84,147.22ZM67.56,133.05a5.81,5.81,0,0,1-.57-8.19h0a5.81,5.81,0,0,1,8.19-.57h0a5.81,5.81,0,0,1,.57,8.19h0a5.79,5.79,0,0,1-4.38,2h0A5.75,5.75,0,0,1,67.56,133.05ZM51.28,118.88a5.81,5.81,0,0,1-.57-8.2h0a5.81,5.81,0,0,1,8.19-.56h0a5.81,5.81,0,0,1,.57,8.19h0a5.8,5.8,0,0,1-4.38,2h0A5.78,5.78,0,0,1,51.28,118.88ZM35,104.7a5.79,5.79,0,0,1-.57-8.19h0a5.8,5.8,0,0,1,8.18-.57h0a5.79,5.79,0,0,1,.57,8.19h0a5.77,5.77,0,0,1-4.38,2h0A5.77,5.77,0,0,1,35,104.7ZM18.71,90.52a5.81,5.81,0,0,1-.57-8.18h0a5.8,5.8,0,0,1,8.19-.57h0A5.8,5.8,0,0,1,26.9,90h0a5.82,5.82,0,0,1-4.38,2h0A5.78,5.78,0,0,1,18.71,90.52Z"/><path class="cls-6" d="M201.63,247.87a5.44,5.44,0,0,1-.57,0,5.58,5.58,0,0,1-.57-.08,7.06,7.06,0,0,1-1.08-.33,6,6,0,0,1-1-.54,4.84,4.84,0,0,1-.46-.33l-.42-.39a5.11,5.11,0,0,1-.39-.42c-.12-.15-.23-.31-.34-.46a6.38,6.38,0,0,1-.53-1,6.85,6.85,0,0,1-.33-1.09,5.39,5.39,0,0,1-.08-.56,3.64,3.64,0,0,1,0-.57,3.56,3.56,0,0,1,0-.57,5.58,5.58,0,0,1,.08-.57,6.74,6.74,0,0,1,.33-1.08,6.48,6.48,0,0,1,.53-1l.34-.45a5.22,5.22,0,0,1,.39-.43,5.14,5.14,0,0,1,.42-.38l.46-.34a5.93,5.93,0,0,1,2.08-.86l.57-.09a5.43,5.43,0,0,1,1.14,0l.57.09a5.93,5.93,0,0,1,2.08.86l.46.34a5.14,5.14,0,0,1,.42.38c.14.14.26.28.39.43l.34.45a6.48,6.48,0,0,1,.53,1,6.74,6.74,0,0,1,.33,1.08,5.58,5.58,0,0,1,.08.57,5.27,5.27,0,0,1,0,.57,5.46,5.46,0,0,1,0,.57,5.39,5.39,0,0,1-.08.56,6.85,6.85,0,0,1-.33,1.09,6.38,6.38,0,0,1-.53,1c-.11.15-.22.31-.34.46s-.25.29-.39.42l-.42.39a4.84,4.84,0,0,1-.46.33,6,6,0,0,1-1,.54,7.06,7.06,0,0,1-1.08.33,5.58,5.58,0,0,1-.57.08A5.44,5.44,0,0,1,201.63,247.87Z"/><rect class="cls-7" x="36.63" y="583.36" width="123.5" height="3.63" transform="translate(-303.15 148.27) rotate(-33.04)"/><rect class="cls-7" x="96.65" y="151.58" width="3.63" height="133.23" transform="translate(-138.13 181.77) rotate(-56.96)"/><path class="cls-5" d="M97.37,494.16a10.32,10.32,0,0,1-4.54-1.08,9.11,9.11,0,0,1-5.07-7.33,12.43,12.43,0,0,1,.33-4.57c-6.34,1.42-13.79,5-17.08,10.16a2.73,2.73,0,1,1-4.62-2.92c4.64-7.33,15-11.84,23.14-13.06.57-.09,1.22-.17,1.92-.23a9.6,9.6,0,0,1,.74-.69l0,0c7.41-6.06,16.33-7.59,25-9.06q1.64-.27,3.27-.57a2.73,2.73,0,0,1,1,5.38l-3.33.58c-6.52,1.11-12.77,2.18-18.2,5.09a9.93,9.93,0,0,1,3.3,1.81,9.28,9.28,0,0,1-5.83,16.52Zm-3.14-13.69a8,8,0,0,0-1,4.64,3.67,3.67,0,0,0,2.07,3.07,4,4,0,0,0,5.37-1.28c.87-1.32,1.06-3.35-1-5.12C98.85,481.11,97.05,480.49,94.23,480.47Z"/><path class="cls-5" d="M120.94,330.91a2.59,2.59,0,0,1-.48,0l-3.27-.57c-8.63-1.47-17.55-3-25-9.05l0,0c-.26-.22-.5-.45-.74-.69-.7-.07-1.35-.15-1.92-.23-8.18-1.23-18.5-5.74-23.14-13.06A2.74,2.74,0,0,1,71,304.31c3.29,5.21,10.74,8.74,17.08,10.16a12.43,12.43,0,0,1-.33-4.57,9.12,9.12,0,0,1,5-7.31,9.48,9.48,0,0,1,12.4,3.16,9.22,9.22,0,0,1-2,12.26,9.66,9.66,0,0,1-3.3,1.81c5.43,2.92,11.68,4,18.2,5.1l3.33.57a2.73,2.73,0,0,1-.49,5.42ZM97.35,307a4.81,4.81,0,0,0-2.14.53,3.66,3.66,0,0,0-2,3.06,8,8,0,0,0,1,4.64c2.82,0,4.62-.64,5.41-1.32a3.74,3.74,0,0,0,1-5.12A3.9,3.9,0,0,0,97.35,307Z"/><rect class="cls-7" x="42.57" y="399.89" width="69.6" height="3.63"/><path class="cls-6" d="M42.91,452.76a3.07,3.07,0,0,1-.45-6.1L50,445.55a3.06,3.06,0,0,1,.9,6.06l-7.58,1.12Zm19-2.79a3.07,3.07,0,0,1-.45-6.1L69,442.75a3.07,3.07,0,0,1,.9,6.07l-7.58,1.11A2.28,2.28,0,0,1,61.86,450Zm19-2.8a3.07,3.07,0,0,1-.45-6.1L87.94,440a3.06,3.06,0,0,1,.9,6.06l-7.58,1.12A3.4,3.4,0,0,1,80.81,447.17Zm19-2.79a3.07,3.07,0,0,1-.45-6.1l7.58-1.12a3.06,3.06,0,0,1,.9,6.06l-7.58,1.12A2.28,2.28,0,0,1,99.76,444.38Zm18.95-2.8a3.07,3.07,0,0,1-.45-6.1l3.52-.52a3.07,3.07,0,0,1,.9,6.07l-3.52.52Z"/><path class="cls-6" d="M122.24,367.21a2.83,2.83,0,0,1-.41,0l-3.35-.44a3.07,3.07,0,0,1,.8-6.08l3.35.44a3.07,3.07,0,0,1-.39,6.11Zm-14.75-1.94a2.83,2.83,0,0,1-.41,0l-7.59-1a3.07,3.07,0,0,1,.8-6.08l7.59,1a3.07,3.07,0,0,1-.39,6.11Zm-19-2.5-.4,0-7.6-1a3.07,3.07,0,0,1,.8-6.08l7.6,1a3.07,3.07,0,0,1-.4,6.11Zm-19-2.5a2.69,2.69,0,0,1-.4,0l-7.6-1a3.07,3.07,0,0,1,.8-6.08l7.6,1a3.07,3.07,0,0,1-.4,6.11Zm-19-2.5a2.69,2.69,0,0,1-.4,0l-7.6-1a3.07,3.07,0,0,1,.8-6.08l7.6,1a3.07,3.07,0,0,1-.4,6.11Z"/><path class="cls-3" d="M749.94,171.39a2,2,0,0,1-.29,4c-12.34-.44-20.81,4-25.18,13.22-6.59,13.13-16.76,18-30.23,14.46a2,2,0,0,1,1-3.87c11.56,3,19.94-1,25.62-12.35,6.36-13.39,19.24-15.8,28.92-15.46Z"/><path class="cls-3" d="M653.84,563.79l.12,0c13.73,2.35,21,11,21.56,25.61.17,10.24,6.05,17.79,17.47,22.48a2,2,0,1,1-1.52,3.7c-9-3.69-19.69-11.2-20-26.07-.5-12.62-6.46-19.76-18.23-21.79a2,2,0,0,1,.55-4Z"/><path class="cls-4" d="M789,234.92a.69.69,0,0,1,.24.05l9.24,2.9a1.27,1.27,0,0,1-.77,2.43l-8.24-2.6-4.18,7.57a1.27,1.27,0,0,1-1.49.59l-8.24-2.59-4.18,7.56a1.27,1.27,0,0,1-1.49.6l-8.24-2.6-4.18,7.57A1.27,1.27,0,0,1,756,257l-8.24-2.59L743.56,262a1.27,1.27,0,0,1-1.49.6l-8.25-2.6-4.18,7.57a1.25,1.25,0,0,1-1.49.59l-8.24-2.59-4.18,7.56a1.27,1.27,0,0,1-1.49.6L706,271.1l-4.18,7.56a1.27,1.27,0,0,1-1.49.6l-8.24-2.6-4.18,7.57a1.25,1.25,0,0,1-1.49.59l-8.25-2.59L674,289.8a1.28,1.28,0,0,1-1.49.59l-9.24-2.9a1.27,1.27,0,0,1,.76-2.43l8.25,2.6,4.18-7.57a1.27,1.27,0,0,1,1.49-.6l8.25,2.6,4.18-7.56a1.27,1.27,0,0,1,1.49-.6l8.24,2.59,4.18-7.56a1.28,1.28,0,0,1,1.5-.6L714,271l4.18-7.57a1.27,1.27,0,0,1,1.49-.6l8.24,2.6,4.18-7.56a1.27,1.27,0,0,1,1.49-.6l8.25,2.59,4.18-7.56a1.27,1.27,0,0,1,1.49-.6l8.24,2.6,4.18-7.57a1.26,1.26,0,0,1,1.49-.59l8.24,2.59,4.18-7.56a1.27,1.27,0,0,1,1.49-.6l8.24,2.6,4.18-7.57A1.26,1.26,0,0,1,789,234.92Z"/><path class="cls-4" d="M645.79,479.08a1.29,1.29,0,0,1,1.08.9l2.48,8.28,8.61-.78a1.27,1.27,0,0,1,1.33.9l2.47,8.28,8.61-.78a1.26,1.26,0,0,1,1.33.9l2.48,8.28,8.61-.78a1.26,1.26,0,0,1,1.33.9l2.47,8.28,8.61-.78a1.26,1.26,0,0,1,1.33.9l2.48,8.28,8.6-.79a1.29,1.29,0,0,1,1.34.9l2.47,8.28,8.61-.78a1.27,1.27,0,0,1,1.33.9l2.47,8.28,8.61-.79a1.28,1.28,0,0,1,1.33.91l2.47,8.27,8.61-.78a1.27,1.27,0,0,1,1.33.9l2.47,8.28,8.61-.78a1.26,1.26,0,0,1,1.33.9l2.77,9.27a1.27,1.27,0,1,1-2.43.73l-2.48-8.28-8.6.78a1.25,1.25,0,0,1-1.33-.9L744,548.88l-8.6.79a1.27,1.27,0,0,1-1.33-.9l-2.48-8.28-8.6.78a1.28,1.28,0,0,1-1.34-.9l-2.47-8.28-8.6.79a1.28,1.28,0,0,1-1.34-.9l-2.47-8.28-8.61.78a1.27,1.27,0,0,1-1.33-.9l-2.47-8.28-8.61.78a1.26,1.26,0,0,1-1.33-.9L682,506.9l-8.6.78a1.27,1.27,0,0,1-1.34-.9l-2.47-8.28-8.61.79a1.27,1.27,0,0,1-1.33-.9l-2.48-8.28-8.61.78a1.28,1.28,0,0,1-1.33-.9l-2.77-9.28a1.27,1.27,0,0,1,.85-1.58A1.24,1.24,0,0,1,645.79,479.08Z"/><path class="cls-5" d="M759.35,5.48l3.5,4.22a10.79,10.79,0,0,1-6.08,2.58,6.09,6.09,0,0,0-5.35,4.44,10.82,10.82,0,0,1-3.66,5.49,10.86,10.86,0,0,1-6.08,2.59,5.59,5.59,0,0,0-3.37,1.37,5.66,5.66,0,0,0-2,3.06,11.51,11.51,0,0,1-9.73,8.08,6.08,6.08,0,0,0-5.36,4.44,11.52,11.52,0,0,1-9.73,8.07,6.08,6.08,0,0,0-5.36,4.44,10.77,10.77,0,0,1-3.66,5.5,10.91,10.91,0,0,1-6.07,2.58,6.08,6.08,0,0,0-5.36,4.44,10.75,10.75,0,0,1-3.66,5.49,10.86,10.86,0,0,1-6.07,2.59A6.08,6.08,0,0,0,676,79.3a11.51,11.51,0,0,1-9.74,8.07,5.65,5.65,0,0,0-3.37,1.38,5.59,5.59,0,0,0-2,3.07,10.85,10.85,0,0,1-3.67,5.49l-3.5-4.22a5.54,5.54,0,0,0,2-3.06A11.58,11.58,0,0,1,665.43,82a6.08,6.08,0,0,0,5.36-4.44,11.54,11.54,0,0,1,9.74-8.08A6.09,6.09,0,0,0,685.88,65a11.51,11.51,0,0,1,9.74-8.07A6.09,6.09,0,0,0,701,52.48a11.54,11.54,0,0,1,9.74-8.08A6.09,6.09,0,0,0,716.06,40a11.51,11.51,0,0,1,9.74-8.07,5.65,5.65,0,0,0,3.37-1.38,5.54,5.54,0,0,0,2-3.06,11.54,11.54,0,0,1,9.74-8.08A5.57,5.57,0,0,0,744.26,18a5.66,5.66,0,0,0,2-3.06,10.88,10.88,0,0,1,3.66-5.5A10.91,10.91,0,0,1,756,6.86,5.55,5.55,0,0,0,759.35,5.48Z"/><path class="cls-3" d="M602.39,137.84a2,2,0,0,1,1.28.66,2,2,0,0,1-.17,2.82l-12.12,10.76a2,2,0,1,1-2.65-3l12.12-10.77A2,2,0,0,1,602.39,137.84Z"/><path class="cls-3" d="M649.46,96a2,2,0,0,1,1.28.66,2,2,0,0,1-.17,2.82l-41.24,36.64a2,2,0,1,1-2.65-3l41.24-36.64A2,2,0,0,1,649.46,96Z"/><path class="cls-5" d="M592.24,681.61a5.63,5.63,0,0,0,3,2.07,11.51,11.51,0,0,1,7.8,10,6.12,6.12,0,0,0,4.29,5.48,11.54,11.54,0,0,1,7.8,10,6.12,6.12,0,0,0,4.29,5.48,11.51,11.51,0,0,1,7.8,10,5.57,5.57,0,0,0,1.28,3.41,5.63,5.63,0,0,0,3,2.07,11.51,11.51,0,0,1,7.8,10,5.63,5.63,0,0,0,1.29,3.41,5.53,5.53,0,0,0,3,2.06,11.54,11.54,0,0,1,7.8,10,5.51,5.51,0,0,0,1.28,3.41,5.63,5.63,0,0,0,3,2.07,11.51,11.51,0,0,1,7.8,10,6.06,6.06,0,0,0,4.28,5.47,11.54,11.54,0,0,1,7.8,10,5.58,5.58,0,0,0,1.29,3.41l-4.32,3.38a10.87,10.87,0,0,1-2.41-6.14,6.09,6.09,0,0,0-4.28-5.48,11.51,11.51,0,0,1-7.8-10,5.67,5.67,0,0,0-1.28-3.41,5.59,5.59,0,0,0-3-2.06,11.58,11.58,0,0,1-7.8-10,5.51,5.51,0,0,0-1.28-3.41,5.63,5.63,0,0,0-3-2.07,11.51,11.51,0,0,1-7.8-10,6.08,6.08,0,0,0-4.29-5.48,11.52,11.52,0,0,1-7.79-10,6.09,6.09,0,0,0-4.29-5.47,11.54,11.54,0,0,1-7.8-10,5.68,5.68,0,0,0-1.28-3.42,5.59,5.59,0,0,0-3-2.06,11.54,11.54,0,0,1-7.8-10,6.05,6.05,0,0,0-4.29-5.47,11,11,0,0,1-5.39-3.82Z"/><path class="cls-3" d="M540.51,611.45a2,2,0,0,1,1.4.81l9.55,13.09a2,2,0,0,1-3.23,2.36l-9.55-13.1a2,2,0,0,1,1.83-3.16Z"/><path class="cls-3" d="M554.65,630.84a2,2,0,0,1,1.4.81l32.52,44.57a2,2,0,0,1-3.23,2.36L552.83,634a2,2,0,0,1,.43-2.8A2,2,0,0,1,554.65,630.84Z"/><path class="cls-5" d="M740.36,89.92a19.46,19.46,0,0,1,5.6,1.76c3.09,1.34,4.59,1.82,6,.87L755,97.08c-4.06,2.75-8.22.94-11.26-.38s-4.58-1.82-6-.86-1.51,2.53-1.4,5.89.26,7.85-3.79,10.61-8.22,1-11.26-.37-4.58-1.83-6-.87-1.51,2.53-1.4,5.89.26,7.85-3.79,10.61-8.22,1-11.26-.37-4.58-1.83-6-.87-1.51,2.53-1.4,5.89.27,7.85-3.79,10.61-8.21.95-11.25-.37-4.59-1.83-6-.87-1.51,2.53-1.39,5.89.26,7.86-3.8,10.61-8.21.95-11.25-.37-4.59-1.82-6-.87-1.51,2.54-1.4,5.9.27,7.85-3.79,10.61-8.22.94-11.26-.38-4.58-1.82-6-.86-1.51,2.53-1.4,5.89.26,7.85-3.79,10.61-8.22.95-11.26-.37-4.59-1.82-6-.87l-3.08-4.53c4.05-2.75,8.22-.95,11.26.37s4.59,1.83,6,.87,1.51-2.53,1.39-5.9-.26-7.85,3.8-10.6,8.21-1,11.26.37,4.58,1.82,6,.86,1.51-2.53,1.4-5.89-.26-7.85,3.79-10.61,8.22-.95,11.26.37,4.58,1.83,6,.87,1.51-2.53,1.4-5.89-.26-7.85,3.79-10.61,8.22-1,11.26.37,4.58,1.83,6,.87,1.51-2.53,1.4-5.9-.26-7.85,3.79-10.6,8.22-1,11.26.37,4.58,1.83,6,.87,1.51-2.53,1.4-5.9-.27-7.85,3.79-10.6,8.21-.95,11.25.37,4.59,1.83,6,.87,1.51-2.54,1.39-5.9-.26-7.85,3.79-10.6A8.13,8.13,0,0,1,740.36,89.92Z"/><path class="cls-5" d="M580.43,576c3.37,3.56,2.26,8,1.45,11.17s-1.06,4.82.11,6.06,2.74,1.08,6,.43,7.71-1.53,11.08,2,2.27,8,1.45,11.17-1.06,4.82.12,6.06,2.74,1.08,6,.43,7.7-1.53,11.08,2,2.26,7.95,1.45,11.17-1.06,4.82.11,6,2.74,1.08,6,.43,7.71-1.52,11.08,2,2.26,8,1.45,11.17-1.06,4.82.11,6.06,2.74,1.08,6,.42,7.71-1.52,11.08,2,2.26,8,1.45,11.17-1.06,4.82.11,6.06,2.74,1.08,6,.43,7.71-1.53,11.08,2,2.27,8,1.45,11.17-1.06,4.81.11,6.05,2.74,1.08,6,.43,7.71-1.53,11.08,2,2.27,7.95,1.45,11.17-1.06,4.82.11,6l-4,3.78c-3.37-3.56-2.26-8-1.45-11.17s1.06-4.82-.11-6.06-2.74-1.08-6-.43-7.71,1.53-11.08-2-2.26-8-1.45-11.17,1.06-4.82-.11-6.05-2.74-1.08-6-.43-7.71,1.53-11.08-2-2.26-8-1.45-11.17,1.06-4.82-.11-6-2.74-1.08-6-.43-7.71,1.52-11.08-2-2.26-8-1.45-11.17,1.06-4.82-.11-6.06-2.75-1.08-6-.42-7.71,1.52-11.08-2-2.27-8-1.45-11.18,1.06-4.81-.12-6-2.74-1.08-6-.43-7.71,1.53-11.08-2-2.26-8-1.45-11.17,1.06-4.82-.11-6.06-2.74-1.08-6-.43-7.71,1.53-11.08-2-2.27-8-1.46-11.17,1.07-4.82-.11-6.06Z"/><path class="cls-6" d="M842.43,64.34a5,5,0,0,1,.56.09,5.73,5.73,0,0,1,.56.14,7.26,7.26,0,0,1,1,.45,5.93,5.93,0,0,1,.94.63c.14.13.29.25.42.39s.26.28.38.43a5.48,5.48,0,0,1,.34.46,4.76,4.76,0,0,1,.28.49,5,5,0,0,1,.42,1,6.16,6.16,0,0,1,.22,1.12c0,.19,0,.38,0,.57a5.33,5.33,0,0,1-.12,1.13,4.94,4.94,0,0,1-.15.55,6,6,0,0,1-.44,1,5.38,5.38,0,0,1-.64.94l-.38.42c-.14.13-.28.26-.43.38A3.83,3.83,0,0,1,845,75c-.16.11-.33.2-.49.29a5.23,5.23,0,0,1-1,.42,6.33,6.33,0,0,1-1.12.22,6.14,6.14,0,0,1-1.71-.1,4.77,4.77,0,0,1-.54-.15A5.41,5.41,0,0,1,839,75.2a6,6,0,0,1-.94-.64,3.88,3.88,0,0,1-.42-.39,5.14,5.14,0,0,1-.38-.42c-.12-.15-.23-.3-.34-.46s-.19-.33-.28-.5a5.38,5.38,0,0,1-.43-1.05,7,7,0,0,1-.21-1.11,5.43,5.43,0,0,1,0-.57,3.57,3.57,0,0,1,0-.57,5.62,5.62,0,0,1,.09-.57c0-.18.09-.37.14-.55a6.4,6.4,0,0,1,.45-1,5.93,5.93,0,0,1,.63-.94q.2-.23.39-.42a5.08,5.08,0,0,1,.43-.38l.46-.34c.16-.1.32-.2.49-.29a6.16,6.16,0,0,1,1.06-.42,5.88,5.88,0,0,1,1.11-.21,3.62,3.62,0,0,1,.57,0A5.44,5.44,0,0,1,842.43,64.34Z"/><path class="cls-6" d="M828.87,79.14a5.8,5.8,0,0,1-1.45,8.08h0a5.81,5.81,0,0,1-8.08-1.44h0a5.81,5.81,0,0,1,1.44-8.08h0a5.79,5.79,0,0,1,3.94-1h0A5.78,5.78,0,0,1,828.87,79.14ZM811.16,91.49a5.82,5.82,0,0,1-1.44,8.09h0a5.81,5.81,0,0,1-8.08-1.45h0a5.81,5.81,0,0,1,1.44-8.08h0A5.83,5.83,0,0,1,807,89h0A5.82,5.82,0,0,1,811.16,91.49Zm-17.7,12.35a5.82,5.82,0,0,1-1.44,8.09h0a5.82,5.82,0,0,1-8.09-1.44h0a5.81,5.81,0,0,1,1.45-8.08h0a5.75,5.75,0,0,1,3.93-1h0A5.84,5.84,0,0,1,793.46,103.84ZM775.75,116.2a5.8,5.8,0,0,1-1.44,8.08h0a5.81,5.81,0,0,1-8.08-1.44h0a5.8,5.8,0,0,1,1.44-8.08h0a5.79,5.79,0,0,1,3.94-1h0A5.76,5.76,0,0,1,775.75,116.2Zm-17.7,12.35a5.8,5.8,0,0,1-1.44,8.08h0a5.8,5.8,0,0,1-8.08-1.43h0a5.81,5.81,0,0,1,1.44-8.09h0a5.8,5.8,0,0,1,3.93-1h0A5.82,5.82,0,0,1,758.05,128.55ZM740.34,140.9a5.8,5.8,0,0,1-1.43,8.08h0a5.81,5.81,0,0,1-8.09-1.43h0a5.8,5.8,0,0,1,1.44-8.08h0a5.79,5.79,0,0,1,3.94-1h0A5.82,5.82,0,0,1,740.34,140.9Zm-17.7,12.36a5.81,5.81,0,0,1-1.44,8.08h0a5.81,5.81,0,0,1-8.08-1.44h0a5.8,5.8,0,0,1,1.44-8.08h0a5.76,5.76,0,0,1,3.94-1h0A5.76,5.76,0,0,1,722.64,153.26Zm-17.71,12.35a5.8,5.8,0,0,1-1.43,8.08h0a5.79,5.79,0,0,1-8.08-1.44h0a5.8,5.8,0,0,1,1.43-8.08h0a5.79,5.79,0,0,1,3.94-1h0A5.77,5.77,0,0,1,704.93,165.61ZM687.23,178a5.8,5.8,0,0,1-1.44,8.08h0a5.8,5.8,0,0,1-8.08-1.43h0a5.81,5.81,0,0,1,1.44-8.09h0a5.84,5.84,0,0,1,3.94-1h0A5.79,5.79,0,0,1,687.23,178Zm-17.71,12.36a5.8,5.8,0,0,1-1.43,8.08h0A5.8,5.8,0,0,1,660,197h0a5.8,5.8,0,0,1,1.43-8.08h0a5.73,5.73,0,0,1,3.94-1h0A5.74,5.74,0,0,1,669.52,190.32Zm-17.7,12.35a5.81,5.81,0,0,1-1.44,8.08h0a5.8,5.8,0,0,1-8.08-1.44h0a5.8,5.8,0,0,1,1.44-8.08h0a5.79,5.79,0,0,1,3.94-1h0A5.79,5.79,0,0,1,651.82,202.67Z"/><path class="cls-6" d="M630,212.57a5.43,5.43,0,0,1,.56.09l.55.14a6.51,6.51,0,0,1,1,.45,5.48,5.48,0,0,1,.93.64c.15.12.29.25.43.38s.26.28.38.43.23.3.33.46.2.33.29.5a5.35,5.35,0,0,1,.42,1.05,6.06,6.06,0,0,1,.22,1.11,5.52,5.52,0,0,1,0,.57,5.3,5.3,0,0,1,0,.57,5.62,5.62,0,0,1-.09.57c0,.18-.09.37-.14.55a6.4,6.4,0,0,1-.45,1,6,6,0,0,1-.64.94,5.14,5.14,0,0,1-.38.42,5.08,5.08,0,0,1-.43.38l-.46.34-.5.29a6.05,6.05,0,0,1-1,.42,5.3,5.3,0,0,1-1.11.21l-.57,0a6.32,6.32,0,0,1-1.14-.13,5.54,5.54,0,0,1-.55-.14,5,5,0,0,1-1-.45,5.51,5.51,0,0,1-.94-.63,5.23,5.23,0,0,1-.42-.39,5.08,5.08,0,0,1-.38-.43,5.48,5.48,0,0,1-.34-.46c-.1-.16-.2-.32-.29-.49a6.76,6.76,0,0,1-.42-1.05,6.45,6.45,0,0,1-.24-1.69c0-.19,0-.38,0-.57a5.43,5.43,0,0,1,.09-.56,3.41,3.41,0,0,1,.14-.55,5.11,5.11,0,0,1,.45-1.05,5.93,5.93,0,0,1,.63-.94q.18-.21.39-.42a4.83,4.83,0,0,1,.42-.37,5.09,5.09,0,0,1,.47-.34,4,4,0,0,1,.49-.29,6.81,6.81,0,0,1,1.05-.43,7.13,7.13,0,0,1,1.12-.21,5.43,5.43,0,0,1,.57,0Z"/><path class="cls-6" d="M770.92,725.4l.56.1.55.14a6.91,6.91,0,0,1,1.05.45,6.43,6.43,0,0,1,.94.63l.41.39a4,4,0,0,1,.39.43,3.83,3.83,0,0,1,.33.46,4.85,4.85,0,0,1,.29.49,5.44,5.44,0,0,1,.42,1.06,5.9,5.9,0,0,1,.22,1.11c0,.19,0,.38,0,.57a5.44,5.44,0,0,1,0,.57c0,.19-.05.38-.09.56s-.09.37-.15.56a6.23,6.23,0,0,1-.44,1,6,6,0,0,1-.64.94q-.18.21-.39.42a5.14,5.14,0,0,1-.42.38,7.36,7.36,0,0,1-1,.62,5,5,0,0,1-1.05.42,6,6,0,0,1-1.12.22,5.24,5.24,0,0,1-.56,0,5.38,5.38,0,0,1-1.14-.12,5.62,5.62,0,0,1-.55-.15,6,6,0,0,1-1-.44,5.91,5.91,0,0,1-.93-.64,5.22,5.22,0,0,1-.43-.39,5.14,5.14,0,0,1-.38-.42c-.11-.15-.23-.3-.33-.46s-.2-.33-.29-.5a6.39,6.39,0,0,1-.42-1.05,5.3,5.3,0,0,1-.21-1.11,5.43,5.43,0,0,1,0-1.14,5.23,5.23,0,0,1,.24-1.12,5,5,0,0,1,.45-1,5.93,5.93,0,0,1,.63-.94,5.23,5.23,0,0,1,.39-.42,3.08,3.08,0,0,1,.43-.38,3.9,3.9,0,0,1,.46-.34c.16-.1.32-.2.49-.29a6.39,6.39,0,0,1,1-.42,6.14,6.14,0,0,1,1.12-.21,5.33,5.33,0,0,1,.57,0A5.52,5.52,0,0,1,770.92,725.4Z"/><path class="cls-6" d="M613.14,553.06a5.8,5.8,0,0,1-.31,8.2h0a5.8,5.8,0,0,1-8.2-.31h0a5.81,5.81,0,0,1,.31-8.21h0a5.83,5.83,0,0,1,4.57-1.51h0A5.81,5.81,0,0,1,613.14,553.06Zm14.67,15.83a5.79,5.79,0,0,1-.31,8.2h0a5.79,5.79,0,0,1-8.2-.31h0a5.8,5.8,0,0,1,.31-8.2h0a5.76,5.76,0,0,1,4.57-1.51h0A5.7,5.7,0,0,1,627.81,568.89Zm14.68,15.83a5.81,5.81,0,0,1-.31,8.21h0a5.8,5.8,0,0,1-8.2-.31h0a5.78,5.78,0,0,1,.31-8.2h0a5.78,5.78,0,0,1,4.56-1.52h0A5.84,5.84,0,0,1,642.49,584.72Zm14.67,15.84a5.8,5.8,0,0,1-.31,8.2h0a5.8,5.8,0,0,1-8.2-.31h0a5.8,5.8,0,0,1,.31-8.2h0a5.76,5.76,0,0,1,4.57-1.51h0A5.75,5.75,0,0,1,657.16,600.56Zm14.67,15.84a5.79,5.79,0,0,1-.3,8.2h0a5.81,5.81,0,0,1-8.21-.32h0a5.8,5.8,0,0,1,.31-8.2h0a5.84,5.84,0,0,1,4.57-1.51h0A5.71,5.71,0,0,1,671.83,616.4Zm14.68,15.83a5.8,5.8,0,0,1-.31,8.2h0a5.8,5.8,0,0,1-8.2-.31h0a5.8,5.8,0,0,1,.31-8.21h0a5.83,5.83,0,0,1,4.57-1.51h0A5.81,5.81,0,0,1,686.51,632.23Zm14.67,15.83a5.79,5.79,0,0,1-.31,8.2h0a5.79,5.79,0,0,1-8.2-.31h0a5.8,5.8,0,0,1,.31-8.2h0a5.76,5.76,0,0,1,4.57-1.51h0A5.72,5.72,0,0,1,701.18,648.06Zm14.68,15.83a5.81,5.81,0,0,1-.31,8.21h0a5.81,5.81,0,0,1-8.21-.31h0a5.8,5.8,0,0,1,.31-8.2h0a5.82,5.82,0,0,1,4.57-1.52h0A5.84,5.84,0,0,1,715.86,663.89Zm14.67,15.84a5.8,5.8,0,0,1-.31,8.2h0a5.8,5.8,0,0,1-8.2-.31h0a5.8,5.8,0,0,1,.31-8.2h0a5.76,5.76,0,0,1,4.57-1.51h0A5.75,5.75,0,0,1,730.53,679.73Zm14.67,15.84a5.78,5.78,0,0,1-.31,8.2h0a5.8,5.8,0,0,1-8.2-.31h0a5.81,5.81,0,0,1,.31-8.21h0a5.83,5.83,0,0,1,4.57-1.51h0A5.71,5.71,0,0,1,745.2,695.57Zm14.68,15.83a5.8,5.8,0,0,1-.31,8.2h0a5.8,5.8,0,0,1-8.2-.31h0a5.81,5.81,0,0,1,.31-8.21h0a5.82,5.82,0,0,1,4.57-1.51h0A5.81,5.81,0,0,1,759.88,711.4Z"/><path class="cls-6" d="M594.83,535.4l.57.09a5.54,5.54,0,0,1,.55.14,6.4,6.4,0,0,1,1,.45,6,6,0,0,1,.94.64,3.79,3.79,0,0,1,.42.38c.13.14.26.28.38.43a3.83,3.83,0,0,1,.33.46c.11.16.2.33.29.49a5.23,5.23,0,0,1,.42,1,6.33,6.33,0,0,1,.22,1.12,6.51,6.51,0,0,1,0,1.14,5,5,0,0,1-.09.56c0,.19-.09.37-.14.55a6.51,6.51,0,0,1-.45,1.05,5.38,5.38,0,0,1-.64.94c-.11.14-.25.28-.38.42s-.28.26-.43.38a5.48,5.48,0,0,1-.46.34,4.76,4.76,0,0,1-.49.28,5.74,5.74,0,0,1-1.06.43,5.88,5.88,0,0,1-1.11.21,5.43,5.43,0,0,1-.57,0,5.52,5.52,0,0,1-1.14-.12l-.55-.14a6.4,6.4,0,0,1-1-.45,6,6,0,0,1-.94-.64,5.14,5.14,0,0,1-.42-.38c-.13-.14-.26-.28-.38-.43a4.84,4.84,0,0,1-.33-.46c-.11-.16-.2-.33-.29-.49a5.74,5.74,0,0,1-.43-1.06,7,7,0,0,1-.21-1.11,6.51,6.51,0,0,1,0-1.14,5,5,0,0,1,.09-.56c0-.19.09-.37.14-.56a6.8,6.8,0,0,1,.45-1,5.38,5.38,0,0,1,.64-.94l.38-.42c.14-.13.28-.26.43-.38l.46-.34a4.76,4.76,0,0,1,.49-.28,5.74,5.74,0,0,1,1.06-.43,5.88,5.88,0,0,1,1.11-.21,3.62,3.62,0,0,1,.57,0Z"/><rect class="cls-7" x="671.8" y="209.26" width="123.5" height="3.63" transform="translate(-16.11 354.78) rotate(-26.9)"/><rect class="cls-7" x="692.42" y="509.32" width="3.63" height="133.23" transform="translate(-190.79 750.26) rotate(-50.82)"/><path class="cls-5" d="M724.82,301.67a10.41,10.41,0,0,1,4.4,1.55,9.15,9.15,0,0,1,4.26,7.83,12.36,12.36,0,0,1-.82,4.51c6.46-.73,14.24-3.45,18.07-8.27a2.73,2.73,0,1,1,4.27,3.4c-5.39,6.78-16.13,10.17-24.39,10.51-.58,0-1.23,0-1.93,0-.27.22-.54.42-.82.61l0,0c-8,5.23-17.05,5.79-25.78,6.33l-3.31.22a2.73,2.73,0,0,1-.39-5.45l3.36-.22c6.61-.41,12.93-.8,18.64-3.12a9.66,9.66,0,0,1-3.08-2.15,9.28,9.28,0,0,1,7.56-15.8Zm1.66,13.95a8,8,0,0,0,1.54-4.51,3.68,3.68,0,0,0-1.73-3.28,4,4,0,0,0-5.48.71c-1,1.21-1.41,3.22.44,5.19C722,314.49,723.68,315.29,726.48,315.62Z"/><path class="cls-5" d="M683.93,461.46a2.7,2.7,0,0,1,.48.09l3.19.92c8.42,2.38,17.13,4.85,23.85,11.67l0,0c.23.25.46.5.67.77.69.14,1.32.29,1.88.43,8,2.09,17.78,7.68,21.61,15.46a2.73,2.73,0,1,1-4.91,2.41c-2.71-5.52-9.74-9.84-15.89-11.92a12.57,12.57,0,0,1-.16,4.58,9.14,9.14,0,0,1-5.78,6.73,9.49,9.49,0,0,1-12-4.47,9.22,9.22,0,0,1,3.28-12,10,10,0,0,1,3.48-1.45c-5.09-3.47-11.18-5.2-17.56-7l-3.24-.92a2.73,2.73,0,0,1,1.06-5.34Zm20.9,26.34a4.88,4.88,0,0,0,2.18-.3,3.66,3.66,0,0,0,2.35-2.82,8,8,0,0,0-.55-4.73c-2.8-.28-4.66.14-5.52.73-2.22,1.54-2.24,3.58-1.52,5A3.89,3.89,0,0,0,704.83,487.8Z"/><rect class="cls-7" x="733.01" y="360.93" width="3.63" height="69.6" transform="translate(262.8 1084.04) rotate(-83.86)"/><path class="cls-6" d="M774.55,348.65a3.07,3.07,0,0,1-.21,6.11l-7.66.3a3.06,3.06,0,1,1-.24-6.12l7.65-.31A3.46,3.46,0,0,1,774.55,348.65Zm-19.14.75a3.07,3.07,0,0,1-.21,6.11l-7.66.3a3.06,3.06,0,0,1-.24-6.12l7.65-.3A3.49,3.49,0,0,1,755.41,349.4Zm-19.14.76a3.07,3.07,0,0,1-.22,6.11l-7.65.3a3.07,3.07,0,0,1-.24-6.13l7.65-.3A2.33,2.33,0,0,1,736.27,350.16Zm-19.14.75a3.07,3.07,0,0,1-.22,6.11l-7.65.3a3.06,3.06,0,1,1-.24-6.12l7.65-.31A3.46,3.46,0,0,1,717.13,350.91Zm-19.15.75a3.06,3.06,0,0,1-.21,6.11l-3.55.14a3.06,3.06,0,0,1-.24-6.12l3.55-.14A3.3,3.3,0,0,1,698,351.66Z"/><path class="cls-6" d="M686.53,425.23l.4.07,3.28.8a3.07,3.07,0,1,1-1.44,6l-3.29-.8a3.07,3.07,0,0,1,1-6ZM701,428.74a2.57,2.57,0,0,1,.4.07l7.45,1.81a3.06,3.06,0,1,1-1.45,5.95l-7.44-1.8a3.07,3.07,0,0,1,1-6Zm18.62,4.52a2.76,2.76,0,0,1,.4.06l7.44,1.81a3.07,3.07,0,1,1-1.44,6l-7.45-1.81a3.06,3.06,0,0,1,1.05-6Zm18.62,4.51.39.07,7.45,1.81a3.06,3.06,0,1,1-1.44,6l-7.45-1.8a3.07,3.07,0,0,1,1.05-6Zm18.61,4.52a1.87,1.87,0,0,1,.4.07l7.45,1.8a3.07,3.07,0,0,1-1.45,6l-7.45-1.81a3.06,3.06,0,0,1,1.05-6Z"/></g></g></svg>