<svg xmlns="http://www.w3.org/2000/svg" viewBox="0 0 415 424.69"><defs><style>.cls-1{fill:#002e5a;}.cls-2{fill:none;stroke:#303030;stroke-miterlimit:10;stroke-width:4.2px;}</style></defs><title>bg-final-trivia</title><g id="Capa_2" data-name="Capa 2"><g id="Capa_2-2" data-name="Capa 2"><path class="cls-1" d="M307,20.53c-23.78-.66-49.08,8.5-61,30-18.62,33.81-37.23,71.59-76.12,81.57-52.7,13.66-114.11,16-149.67,61.46C1.32,217.4-4.6,249.22,4,278.87c9.58,33.29,31.25,60,58.08,79.56a202.42,202.42,0,0,0,28.28,17.2C148,403.21,216.19,429.21,279.87,402.4c25.91-11,47.51-28.26,64.67-49.87C381.41,306.13,404.81,250,413.79,192a190.84,190.84,0,0,0,1.08-28.5c-1.37-38.1-14-75.88-38.05-104.41a136.31,136.31,0,0,0-20.14-19.52,131.7,131.7,0,0,0-24.38-15.2A67.09,67.09,0,0,0,307,20.53Z"/><path class="cls-2" d="M257.06,4.65c-23.92,4.93-47.05,20-54,44.34-10.67,38.16-20.39,80.3-56.91,99.41C96.71,174.43,35.9,191.24,11,245c-13.19,28.23-11.64,61.43,3.87,89,17.41,31,45.33,52.61,76.74,65.88A207.85,207.85,0,0,0,124,410.46c64.16,14,138.4,24,195.75-17.78,23.31-17.06,40.84-39.4,52.92-65,25.95-55,36.15-116.64,31.5-176.71a197.46,197.46,0,0,0-5.61-28.74C388.18,84.44,366.65,49.65,336,26.78A140.83,140.83,0,0,0,311.23,12a135.16,135.16,0,0,0-27.94-9.46A68.84,68.84,0,0,0,257.06,4.65Z"/></g></g></svg>