<svg xmlns="http://www.w3.org/2000/svg" xmlns:xlink="http://www.w3.org/1999/xlink" viewBox="0 0 471.2 454.72"><defs><style>.cls-1,.cls-9{fill:#00abc7;}.cls-2{isolation:isolate;}.cls-3{opacity:0.1;}.cls-10,.cls-13,.cls-3,.cls-9{mix-blend-mode:multiply;}.cls-4,.cls-7{fill:#fff;}.cls-5{fill:#dab38a;}.cls-6{fill:#57dae6;}.cls-7{opacity:0.21;}.cls-8{clip-path:url(#clip-path);}.cls-10,.cls-9{opacity:0.17;}.cls-10{fill:#8f0e2b;}.cls-11{fill:#d1153f;}.cls-12{fill:#ffc106;}.cls-13{fill:#cfcfcf;opacity:0.34;}.cls-14{fill:#d4d4d4;}</style><clipPath id="clip-path"><path class="cls-1" d="M237.83,386.16A109.46,109.46,0,1,1,303.57,246,109.58,109.58,0,0,1,237.83,386.16ZM169.08,195.92a92.83,92.83,0,1,0,118.85,55.75A92.92,92.92,0,0,0,169.08,195.92Z"/></clipPath></defs><title>clock-final</title><g class="cls-2"><g id="Capa_2" data-name="Capa 2"><g id="Capa_2-2" data-name="Capa 2"><ellipse class="cls-3" cx="201.11" cy="447.01" rx="92.06" ry="7.71"/><line class="cls-4" x1="278.97" y1="355.9" x2="289.86" y2="365.08"/><path class="cls-5" d="M292.69,372.9a8.31,8.31,0,0,1-8.19-1.47l-10.89-9.18a8.31,8.31,0,0,1,10.71-12.71l10.89,9.18a8.32,8.32,0,0,1-2.52,14.18Z"/><line class="cls-4" x1="186.85" y1="389.18" x2="184.34" y2="403.21"/><path class="cls-5" d="M187.16,411a8.21,8.21,0,0,1-4.28.36,8.32,8.32,0,0,1-6.72-9.65l2.51-14A8.31,8.31,0,1,1,195,390.65l-2.5,14A8.32,8.32,0,0,1,187.16,411Z"/><circle class="cls-6" cx="200.63" cy="283.22" r="101.14" transform="translate(-141.5 224.82) rotate(-45)"/><circle class="cls-7" cx="206.59" cy="286.01" r="89.54" transform="translate(-21.02 16.43) rotate(-4.33)"/><path class="cls-1" d="M237.83,386.16A109.46,109.46,0,1,1,303.57,246,109.58,109.58,0,0,1,237.83,386.16ZM169.08,195.92a92.83,92.83,0,1,0,118.85,55.75A92.92,92.92,0,0,0,169.08,195.92Z"/><g class="cls-8"><path class="cls-9" d="M232.33,378.12a98.8,98.8,0,1,1,59.34-126.5A98.91,98.91,0,0,1,232.33,378.12ZM170.27,206.39a83.79,83.79,0,1,0,107.28,50.33A83.9,83.9,0,0,0,170.27,206.39Z"/></g><path class="cls-4" d="M181.42,211.35a6.36,6.36,0,1,1-8.14-3.81A6.36,6.36,0,0,1,181.42,211.35Z"/><path class="cls-4" d="M220,208.16a6.36,6.36,0,1,1-8.14-3.82A6.37,6.37,0,0,1,220,208.16Z"/><path class="cls-4" d="M254.08,224.13a6.35,6.35,0,1,1-8.14-3.82A6.35,6.35,0,0,1,254.08,224.13Z"/><path class="cls-4" d="M276.31,255.87a6.35,6.35,0,1,1-8.14-3.82A6.35,6.35,0,0,1,276.31,255.87Z"/><path class="cls-4" d="M279.51,294.49a6.36,6.36,0,1,1-8.14-3.82A6.36,6.36,0,0,1,279.51,294.49Z"/><path class="cls-4" d="M263.54,328.53a6.36,6.36,0,1,1-8.14-3.81A6.36,6.36,0,0,1,263.54,328.53Z"/><path class="cls-4" d="M231.8,350.76a6.36,6.36,0,1,1-8.14-3.81A6.36,6.36,0,0,1,231.8,350.76Z"/><path class="cls-4" d="M193.18,354a6.36,6.36,0,1,1-8.14-3.82A6.36,6.36,0,0,1,193.18,354Z"/><path class="cls-4" d="M159.13,338a6.35,6.35,0,1,1-8.14-3.82A6.35,6.35,0,0,1,159.13,338Z"/><path class="cls-4" d="M136.9,306.25a6.35,6.35,0,1,1-8.13-3.82A6.35,6.35,0,0,1,136.9,306.25Z"/><path class="cls-4" d="M133.71,267.63a6.36,6.36,0,1,1-8.14-3.82A6.37,6.37,0,0,1,133.71,267.63Z"/><path class="cls-4" d="M149.68,233.58a6.36,6.36,0,1,1-8.14-3.81A6.36,6.36,0,0,1,149.68,233.58Z"/><path class="cls-4" d="M181.42,211.35a6.36,6.36,0,1,1-8.14-3.81A6.36,6.36,0,0,1,181.42,211.35Z"/><path class="cls-10" d="M259,291.8l-45.65-8.13a11.68,11.68,0,0,0-2.69-3.89L189.38,221a8.32,8.32,0,0,0-15.64,5.66l19.58,54.19a11.79,11.79,0,0,0,13.16,18.53l.12-.05L256,308.17a8.19,8.19,0,0,0,4.27-.36,8.32,8.32,0,0,0-1.36-16Z"/><path class="cls-11" d="M255.14,300.08a8.22,8.22,0,0,1-4.28.36l-56.48-10.07L168.57,219a8.32,8.32,0,1,1,15.64-5.66l22.54,62.39,47,8.38a8.32,8.32,0,0,1,1.36,16Z"/><path class="cls-12" d="M283.62,183.92l-83-31.46h0a38.35,38.35,0,0,1,49.45-22.26l11.29,4.28a38.34,38.34,0,0,1,22.26,49.44Z"/><path class="cls-13" d="M283.62,183.92,254.74,173s14.84-17.42-4.67-42.77l11.29,4.28a38.34,38.34,0,0,1,22.26,49.44Z"/><path class="cls-12" d="M122.64,193.4l-67.17,58h0a38.36,38.36,0,0,1,4-54.09l9.14-7.89a38.35,38.35,0,0,1,54.08,4Z"/><path class="cls-13" d="M55.47,251.43l23.38-20.2S58.92,220,68.56,189.45l-9.14,7.89a38.36,38.36,0,0,0-4,54.09Z"/><path class="cls-5" d="M171.36,177.75l-15.64,5.65-2.26-6.26a4.48,4.48,0,0,0-5.74-2.69h0a4.48,4.48,0,0,1-5.74-2.69l-2.6-7.21a4.48,4.48,0,0,1,2.69-5.74l24.07-8.7a4.49,4.49,0,0,1,5.74,2.7l2.6,7.2a4.48,4.48,0,0,1-2.69,5.74h0a4.48,4.48,0,0,0-2.69,5.74Z"/><circle class="cls-4" cx="200.63" cy="283.22" r="13.57" transform="translate(-102.42 114.03) rotate(-25.51)"/><path class="cls-14" d="M205,281.64a4.66,4.66,0,1,1-6-2.8A4.66,4.66,0,0,1,205,281.64Z"/><polygon class="cls-12" points="471.2 122.91 369.08 158.23 393.48 169.37 331.18 202.22 442.87 174.83 409.62 158.68 471.2 122.91"/><polygon class="cls-12" points="42.49 9.35 88.58 77.57 68.55 73.03 91.47 121.44 35.88 53.57 63.62 59.18 42.49 9.35"/><path class="cls-12" d="M24.2,164.46a2.65,2.65,0,0,1,2.43-4.72l27.12,14a2.65,2.65,0,1,1-2.43,4.72Z"/><path class="cls-12" d="M151,86a2.69,2.69,0,0,1-1.76-2l-4.85-25.13a2.65,2.65,0,0,1,2.08-3.13,2.51,2.51,0,0,1,1.36.08,2.65,2.65,0,0,1,1.76,2L154.41,83a2.65,2.65,0,0,1-2.08,3.13A2.76,2.76,0,0,1,151,86Z"/><path class="cls-12" d="M343.43,273a2.65,2.65,0,1,1,.78-5.25l32.1,4.76a2.65,2.65,0,1,1-.78,5.25Z"/><path class="cls-12" d="M241.62,72.77a2.48,2.48,0,0,1-1.63-3L263,1.49A2.5,2.5,0,0,1,266.26.16a2.49,2.49,0,0,1,1.78,3L245,71.49a2.17,2.17,0,0,1-1.2,1.27,2.86,2.86,0,0,1-2,.06Z"/><path class="cls-12" d="M309.46,133.9a2.65,2.65,0,0,1-.9-4.51l19.76-16.82a2.65,2.65,0,0,1,4.42,2.15,2.64,2.64,0,0,1-.9,1.82l-19.76,16.82A2.67,2.67,0,0,1,309.46,133.9Z"/><path class="cls-12" d="M343.24,105a4.31,4.31,0,1,1,5.46-2.7A4.31,4.31,0,0,1,343.24,105Z"/><path class="cls-12" d="M142,42.9a4.5,4.5,0,1,1,5.7-2.83A4.5,4.5,0,0,1,142,42.9Z"/><path class="cls-12" d="M398.12,282.79a4.28,4.28,0,1,1,4.86-3.61A4.29,4.29,0,0,1,398.12,282.79Z"/><path class="cls-12" d="M2.55,155.61a4.72,4.72,0,1,1,6.36-2A4.72,4.72,0,0,1,2.55,155.61Z"/></g></g></g></svg>