<svg xmlns="http://www.w3.org/2000/svg" xmlns:xlink="http://www.w3.org/1999/xlink" viewBox="0 0 165.44 153.99"><defs><style>.cls-1,.cls-11{fill:#00abc7;}.cls-2{isolation:isolate;}.cls-3{fill:#f06c29;}.cls-4{fill:none;stroke:#303030;stroke-miterlimit:10;stroke-width:1.52px;}.cls-5{opacity:0.1;}.cls-11,.cls-12,.cls-15,.cls-5{mix-blend-mode:multiply;}.cls-6,.cls-9{fill:#fff;}.cls-7{fill:#dab38a;}.cls-8{fill:#57dae6;}.cls-9{opacity:0.21;}.cls-10{clip-path:url(#clip-path);}.cls-11,.cls-12{opacity:0.17;}.cls-12{fill:#8f0e2b;}.cls-13{fill:#d1153f;}.cls-14{fill:#ffc106;}.cls-15{fill:#cfcfcf;opacity:0.34;}.cls-16{fill:#d4d4d4;}</style><clipPath id="clip-path"><path class="cls-1" d="M90.06,124.73a35.35,35.35,0,1,1,21.23-45.26A35.4,35.4,0,0,1,90.06,124.73ZM67.85,63.28a30,30,0,1,0,38.39,18A30,30,0,0,0,67.85,63.28Z"/></clipPath></defs><title>clock</title><g class="cls-2"><g id="Capa_2" data-name="Capa 2"><g id="Capa_2-2" data-name="Capa 2"><path class="cls-3" d="M111.15,7.64c-8.61-.24-17.77,3.08-22.1,10.87C82.3,30.75,75.57,44.43,61.48,48,42.4,53,20.16,53.85,7.29,70.3a34.43,34.43,0,0,0-5.86,30.89c3.47,12,11.32,21.71,21,28.8a72.12,72.12,0,0,0,10.24,6.23c20.9,10,45.58,19.41,68.64,9.7a59.45,59.45,0,0,0,23.42-18.06,124.2,124.2,0,0,0,25.08-58.13,71,71,0,0,0,.39-10.32c-.5-13.8-5.08-27.48-13.78-37.81a49.79,49.79,0,0,0-7.29-7.07A48,48,0,0,0,120.33,9,24.13,24.13,0,0,0,111.15,7.64Z"/><path class="cls-4" d="M93.08,1.89c-8.66,1.78-17,7.25-19.54,16.05-3.86,13.82-7.38,29.08-20.61,36C35,63.37,13,69.45,4,88.91a35.38,35.38,0,0,0,1.4,32.25c6.3,11.24,16.42,19.05,27.79,23.86a75,75,0,0,0,11.7,3.81c23.23,5.08,50.12,8.69,70.89-6.43a61.13,61.13,0,0,0,19.16-23.55,127.52,127.52,0,0,0,11.41-64,71.45,71.45,0,0,0-2-10.41c-3.73-13.67-11.53-26.27-22.65-34.55a51.06,51.06,0,0,0-9-5.35,48.61,48.61,0,0,0-10.12-3.42A25,25,0,0,0,93.08,1.89Z"/><ellipse class="cls-5" cx="78.2" cy="144.39" rx="29.74" ry="2.49"/><line class="cls-6" x1="103.35" y1="114.96" x2="106.86" y2="117.92"/><path class="cls-7" d="M107.78,120.45a2.71,2.71,0,0,1-2.65-.47l-3.51-3a2.69,2.69,0,1,1,3.46-4.11l3.51,3a2.69,2.69,0,0,1-.81,4.58Z"/><line class="cls-6" x1="73.59" y1="125.71" x2="72.78" y2="130.24"/><path class="cls-7" d="M73.69,132.76a2.57,2.57,0,0,1-1.38.12,2.68,2.68,0,0,1-2.17-3.11l.81-4.53a2.69,2.69,0,0,1,5.29.94l-.81,4.53A2.67,2.67,0,0,1,73.69,132.76Z"/><circle class="cls-8" cx="78.04" cy="91.48" r="32.67" transform="translate(-33.52 46.61) rotate(-27.62)"/><circle class="cls-9" cx="79.97" cy="92.38" r="28.92" transform="translate(-6.75 6.31) rotate(-4.33)"/><path class="cls-1" d="M90.06,124.73a35.35,35.35,0,1,1,21.23-45.26A35.4,35.4,0,0,1,90.06,124.73ZM67.85,63.28a30,30,0,1,0,38.39,18A30,30,0,0,0,67.85,63.28Z"/><g class="cls-10"><path class="cls-11" d="M88.28,122.14a31.91,31.91,0,1,1,19.17-40.87A32,32,0,0,1,88.28,122.14Zm-20-55.47a27.06,27.06,0,1,0,34.65,16.25A27.09,27.09,0,0,0,68.24,66.67Z"/></g><path class="cls-6" d="M71.84,68.27A2.05,2.05,0,1,1,68,69.66a2.05,2.05,0,0,1,3.86-1.39Z"/><path class="cls-6" d="M84.31,67.24A2.05,2.05,0,1,1,81.68,66,2.05,2.05,0,0,1,84.31,67.24Z"/><path class="cls-6" d="M95.31,72.39a2.05,2.05,0,1,1-2.63-1.23A2.06,2.06,0,0,1,95.31,72.39Z"/><path class="cls-6" d="M102.49,82.65a2.05,2.05,0,1,1-2.63-1.24A2.06,2.06,0,0,1,102.49,82.65Z"/><path class="cls-6" d="M103.52,95.12a2.05,2.05,0,1,1-2.63-1.23A2,2,0,0,1,103.52,95.12Z"/><path class="cls-6" d="M98.36,106.12a2.05,2.05,0,1,1-2.63-1.24A2.05,2.05,0,0,1,98.36,106.12Z"/><path class="cls-6" d="M88.11,113.3a2.05,2.05,0,1,1-2.63-1.23A2.05,2.05,0,0,1,88.11,113.3Z"/><path class="cls-6" d="M75.64,114.33A2.06,2.06,0,1,1,73,113.1,2.06,2.06,0,0,1,75.64,114.33Z"/><path class="cls-6" d="M64.64,109.17A2.05,2.05,0,1,1,62,107.94,2.05,2.05,0,0,1,64.64,109.17Z"/><path class="cls-6" d="M57.46,98.92a2.05,2.05,0,1,1-2.63-1.23A2.05,2.05,0,0,1,57.46,98.92Z"/><path class="cls-6" d="M56.43,86.44a2.06,2.06,0,1,1-2.63-1.23A2.06,2.06,0,0,1,56.43,86.44Z"/><path class="cls-6" d="M61.59,75.45A2.06,2.06,0,1,1,59,74.22,2.06,2.06,0,0,1,61.59,75.45Z"/><path class="cls-6" d="M71.84,68.27A2.05,2.05,0,1,1,68,69.66a2.05,2.05,0,0,1,3.86-1.39Z"/><path class="cls-12" d="M96.88,94.25,82.14,91.63a3.89,3.89,0,0,0-.87-1.26l-6.86-19a2.68,2.68,0,1,0-5,1.82l6.32,17.5a3.81,3.81,0,0,0,4.25,6h0l16,2.84a2.57,2.57,0,0,0,1.38-.12,2.66,2.66,0,0,0,1.73-2A2.69,2.69,0,0,0,96.88,94.25Z"/><path class="cls-13" d="M95.65,96.93a2.67,2.67,0,0,1-1.38.11L76,93.79,67.69,70.72a2.68,2.68,0,0,1,5-1.82L80,89.05l15.19,2.71a2.69,2.69,0,0,1,.44,5.17Z"/><path class="cls-14" d="M104.85,59.41,78,49.24h0a12.4,12.4,0,0,1,16-7.19l3.65,1.39a12.39,12.39,0,0,1,7.19,16Z"/><path class="cls-15" d="M104.85,59.41l-9.33-3.54s4.8-5.63-1.51-13.82l3.65,1.39a12.39,12.39,0,0,1,7.19,16Z"/><path class="cls-14" d="M52.85,62.47,31.16,81.21h0a12.39,12.39,0,0,1,1.27-17.47l3-2.55a12.38,12.38,0,0,1,17.47,1.28Z"/><path class="cls-15" d="M31.16,81.21l7.55-6.52s-6.44-3.64-3.33-13.5l-3,2.55a12.39,12.39,0,0,0-1.27,17.47Z"/><path class="cls-7" d="M68.59,57.41l-5.05,1.83-.73-2A1.46,1.46,0,0,0,61,56.35h0a1.45,1.45,0,0,1-1.85-.87l-.84-2.33a1.45,1.45,0,0,1,.87-1.85l7.77-2.81a1.46,1.46,0,0,1,1.86.87l.84,2.33a1.45,1.45,0,0,1-.87,1.85h0a1.45,1.45,0,0,0-.87,1.85Z"/><circle class="cls-6" cx="78.04" cy="91.48" r="4.38" transform="translate(-31.79 42.53) rotate(-25.51)"/><path class="cls-16" d="M79.46,91a1.5,1.5,0,1,1-1.93-.9A1.51,1.51,0,0,1,79.46,91Z"/><polygon class="cls-14" points="165.44 39.7 132.45 51.11 140.33 54.71 120.21 65.32 156.29 56.47 145.55 51.26 165.44 39.7"/><polygon class="cls-14" points="26.96 3.02 41.85 25.06 35.38 23.59 42.78 39.22 24.83 17.3 33.79 19.11 26.96 3.02"/><path class="cls-14" d="M21.05,53.12A.86.86,0,0,1,20.69,52a.84.84,0,0,1,1.15-.36l8.76,4.52a.85.85,0,1,1-.78,1.52Z"/><path class="cls-14" d="M62,27.78a.84.84,0,0,1-.57-.64L59.86,19a.86.86,0,0,1,.68-1A.83.83,0,0,1,61,18a.86.86,0,0,1,.57.64l1.56,8.12a.85.85,0,0,1-.12.64.81.81,0,0,1-.55.37A.83.83,0,0,1,62,27.78Z"/><path class="cls-14" d="M124.17,88.19a.85.85,0,1,1,.25-1.69L134.79,88a.86.86,0,0,1,.72,1,.85.85,0,0,1-1,.72Z"/><path class="cls-14" d="M91.28,23.5a.78.78,0,0,1-.52-1L98.19.48a.81.81,0,0,1,1-.43.81.81,0,0,1,.58,1L92.38,23.09a.68.68,0,0,1-.39.41.86.86,0,0,1-.65,0Z"/><path class="cls-14" d="M113.2,43.25a.84.84,0,0,1-.37-.25.83.83,0,0,1-.21-.62.87.87,0,0,1,.28-.59l6.39-5.43a.83.83,0,0,1,.84-.17.77.77,0,0,1,.37.24.85.85,0,0,1-.07,1.21L114,43.08A.86.86,0,0,1,113.2,43.25Z"/><path class="cls-14" d="M124.11,33.91a1.39,1.39,0,1,1,.89-2.64,1.39,1.39,0,0,1-.89,2.64Z"/><path class="cls-14" d="M59.12,13.86A1.46,1.46,0,1,1,61,12.94,1.45,1.45,0,0,1,59.12,13.86Z"/><path class="cls-14" d="M141.83,91.34a1.38,1.38,0,1,1,1.57-1.16A1.38,1.38,0,0,1,141.83,91.34Z"/><path class="cls-14" d="M14.06,50.26a1.52,1.52,0,1,1,2.06-.65A1.52,1.52,0,0,1,14.06,50.26Z"/></g></g></g></svg>