<svg xmlns="http://www.w3.org/2000/svg" viewBox="0 0 441.41 311.92"><defs><style>.cls-1{fill:#f06c29;}.cls-2{fill:none;stroke:#303030;stroke-miterlimit:10;stroke-width:3.8px;}.cls-3{fill:#fff;}.cls-4{fill:#65c9d8;}</style></defs><title>play-button-trivia</title><g id="Capa_2" data-name="Capa 2"><g id="Capa_2-2" data-name="Capa 2"><path class="cls-1" d="M13.35,199.76c12.91,16.62,34.44,29.5,58.23,27.18,37.28-3.77,77.69-9.5,107.55,12.29,40.58,29.47,77.14,70.43,133.17,72.6,29.48,1.23,58-10.28,76.65-30.66,20.93-22.87,29.82-50.8,30.17-78.79a149.07,149.07,0,0,0-2.36-27.83C406,121.46,388.08,62,330.89,31.41c-23.33-12.4-49.19-18.76-76-19.95A376.74,376.74,0,0,0,88.74,42.53a191.55,191.55,0,0,0-23.17,13.2C36.18,75.33,13.43,102.51,4.42,133A101.14,101.14,0,0,0,.34,156.32a96.74,96.74,0,0,0,1.74,24.17A54.11,54.11,0,0,0,13.35,199.76Z"/><path class="cls-2" d="M29,241.76c17.4,14,42.42,22.48,65.56,15.32,36.24-11.36,75.08-25.32,110.83-9.62,48.54,21.19,96.19,54.69,152.77,45.45,29.8-4.77,55.2-22.09,68.3-46.25,14.73-27.13,16-56.85,8.8-84.9a158.66,158.66,0,0,0-9.9-27.33C400.19,83.56,366.15,27.74,300.71,8.84,274,1.2,246.46.11,219.35,4.37A367,367,0,0,0,61.7,69.26,179.57,179.57,0,0,0,42.12,87.18C18.06,112.75,2.69,144.55,1.93,176.81a102.44,102.44,0,0,0,10.55,48A60.87,60.87,0,0,0,29,241.76Z"/><path class="cls-3" d="M50.78,208.65l3.82-16.79a17.3,17.3,0,0,0,5.19.87c5.06,0,6.42-2.23,6.42-11.73V120.64H88.67v62.21c0,17-6.66,27.77-23.7,27.77C57.32,210.62,53,209.39,50.78,208.65Zm14-105.41c0-6.54,5.18-12.1,12.71-12.1s12.71,5.56,12.71,12.1a12.28,12.28,0,0,1-12.71,12.22A12.28,12.28,0,0,1,64.73,103.24Z"/><path class="cls-3" d="M102.25,162.73V120.64h22.21V158c0,4.94,1.73,6.79,6,6.79s7.41-3.46,8.64-4.94V120.64h22.22v39.75a99.64,99.64,0,0,0,2,21.1H141.62a33.5,33.5,0,0,1-1.48-7.53,24,24,0,0,1-19.38,9C107.06,183,102.25,174.33,102.25,162.73Z"/><path class="cls-3" d="M168.77,195.56c0-6.66,4.2-11.1,10.12-14.31a10.77,10.77,0,0,1-5.18-9.38,14.19,14.19,0,0,1,7.16-13c-6.91-3.71-10.74-9.76-10.74-17.78,0-13.2,10.49-22,29-22a44.45,44.45,0,0,1,12,1.48h23.82v13.58h-7.65a21.92,21.92,0,0,1,1.11,6.91c0,13.21-9.13,21.85-27.77,21.85a49.29,49.29,0,0,1-7.53-.49,3.75,3.75,0,0,0-1,2.46c0,3.09,3.33,3.34,15.06,4,12.1.62,26.29,1.73,26.29,18.89,0,13.2-12.71,23.33-36,23.33C178.28,211.12,168.77,205.81,168.77,195.56Zm42.71-4.69c0-4.07-3.58-3.58-13.82-4.44a39.05,39.05,0,0,1-5.68-.74,6.84,6.84,0,0,0-2.1,5.06c0,4.07,2.47,6.42,9,6.42C207.53,197.17,211.48,194.08,211.48,190.87Zm-4.07-49.74c0-5.92-3.21-8.64-8.15-8.64s-8,2.72-8,8.64,3.08,8.52,8,8.52S207.41,147.06,207.41,141.13Z"/><path class="cls-3" d="M238.26,165.2c0-15.55,15.31-22,32.34-22h1.73v-1.85c0-3.46-1.61-5.31-8.15-5.31-7.28,0-13,3.7-15.18,5.19l-8.89-13.09c4.08-3.58,13.21-9,26.91-9,19.26,0,27.4,6.54,27.4,24.32v16.91a98.82,98.82,0,0,0,2,21.1H274.67a22,22,0,0,1-1.23-5.92,20.47,20.47,0,0,1-16.17,7.4C246.78,183,238.26,176.93,238.26,165.2Zm34.07-.25v-8.88H270.6c-7,0-11.72,2.22-11.72,7,0,3,2.22,4.69,6,4.69A10.61,10.61,0,0,0,272.33,165Z"/><path class="cls-3" d="M306.39,120.64h22.22v7.29c2.84-4.7,7.65-8.77,14.81-8.77,5.06,0,7.9,1,9.63,2l-5.19,18.76c-1.35-.87-3.45-1.73-7.28-1.73a14.09,14.09,0,0,0-12,6.79v36.53H306.39Z"/><path class="cls-4" d="M359.71,170.26c0-6.79,5.31-12.46,13.09-12.46s13.08,5.67,13.08,12.46-5.31,12.59-13.08,12.59S359.71,177.05,359.71,170.26Zm.25-71h25.67l-3.95,51.84H363.91Z"/><path class="cls-4" d="M106.78,72a6.37,6.37,0,1,1,6.37,6.07A6.14,6.14,0,0,1,106.78,72Zm2,9.31h8.64l1.92,25.22H106.9Z"/><path class="cls-3" d="M122.88,62.76h12.37l6.9,21.07c1,3,1.74,6.19,1.8,6.43h.12c.06-.24.9-3.49,1.8-6.43l6.61-21.07H164l-14.89,40H138.31Z"/><path class="cls-3" d="M161.85,94.82c0-7.57,7.44-10.69,15.73-10.69h.84v-.9c0-1.68-.78-2.58-4-2.58a13.48,13.48,0,0,0-7.39,2.52l-4.32-6.36a20,20,0,0,1,13.09-4.39c9.36,0,13.33,3.19,13.33,11.83v8.23a48.4,48.4,0,0,0,1,10.27H179.56a10.73,10.73,0,0,1-.6-2.89,9.94,9.94,0,0,1-7.87,3.61C166,103.47,161.85,100.52,161.85,94.82Zm16.57-.12V90.38h-.84c-3.42,0-5.71,1.08-5.71,3.42,0,1.44,1.08,2.28,2.95,2.28A5.17,5.17,0,0,0,178.42,94.7Z"/><path class="cls-3" d="M195,73.14h10.57v3.31a10.83,10.83,0,0,1,8.7-4c4.09,0,6.43,1.69,7.57,4.45,2.64-3,5.22-4.45,9.43-4.45,6.42,0,8.52,4.21,8.52,9.85v20.48H229V84.55c0-2.4-.6-3.3-2.47-3.3-1.68,0-2.76,1.2-3.72,2.4v19.1H212V84.55c0-2.4-.84-3.3-2.46-3.3-2,0-3.12,1.56-3.72,2.28v19.22H195Z"/><path class="cls-3" d="M244.11,88.1c0-8.11,5.1-15.68,15.67-15.68s15.67,7.21,15.67,15.32c0,7.92-5,15.73-15.67,15.73S244.11,96.14,244.11,88.1Zm19.87,0c0-4.93-.9-8-4.32-8s-4.14,2.76-4.14,7.63,1,7.92,4.44,7.92S264,93,264,88.1Z"/><path class="cls-3" d="M277.67,100.64,281,93.32a14.25,14.25,0,0,0,7.26,2.46c2.64,0,4-.42,4-1.5,0-1.44-4.08-1.5-8.22-3.66-3.66-1.92-5.41-4.33-5.41-8.41,0-6.24,5.05-9.79,12.31-9.79a21.55,21.55,0,0,1,10,2l-3.3,7.2a13.73,13.73,0,0,0-6.13-1.56c-2.58,0-3.42.6-3.42,1.5,0,1.38,2.94,1.5,6.37,2.82,4.56,1.8,7.26,4,7.26,8.95,0,6.84-4.74,10.09-12.67,10.09C283,103.47,279.48,101.85,277.67,100.64Z"/><path class="cls-3" d="M314.36,94.82c0-7.57,7.45-10.69,15.73-10.69h.84v-.9c0-1.68-.78-2.58-4-2.58a13.47,13.47,0,0,0-7.38,2.52l-4.33-6.36a20,20,0,0,1,13.09-4.39c9.37,0,13.33,3.19,13.33,11.83v8.23a48.4,48.4,0,0,0,1,10.27H332.07a10.73,10.73,0,0,1-.6-2.89,9.93,9.93,0,0,1-7.86,3.61C318.51,103.47,314.36,100.52,314.36,94.82Zm16.57-.12V90.38h-.84c-3.42,0-5.7,1.08-5.7,3.42,0,1.44,1.08,2.28,2.94,2.28A5.17,5.17,0,0,0,330.93,94.7Z"/></g></g></svg>